<?xml version="1.0" standalone="no"?>
<!DOCTYPE svg PUBLIC "-//W3C//DTD SVG 20010904//EN"
 "http://www.w3.org/TR/2001/REC-SVG-20010904/DTD/svg10.dtd">
<svg version="1.0" xmlns="http://www.w3.org/2000/svg"
 width="229.000000pt" height="259.000000pt" viewBox="0 0 229.000000 259.000000"
 preserveAspectRatio="xMidYMid meet">
<metadata>
Created by potrace 1.16, written by Peter Selinger 2001-2019
</metadata>
<g transform="translate(0.000000,259.000000) scale(0.100000,-0.100000)"
fill="#000000" stroke="none">
<path d="M0 1295 l0 -1295 1145 0 1145 0 0 1295 0 1295 -1145 0 -1145 0 0
-1295z m1200 1040 c43 -22 50 -43 50 -147 l0 -93 88 -18 c109 -23 195 -56 295
-116 138 -81 283 -233 351 -368 l26 -53 -59 0 -59 0 -48 73 c-126 189 -333
325 -551 362 -41 6 -43 5 -43 -18 0 -21 7 -25 58 -37 94 -21 190 -60 266 -110
72 -47 206 -181 239 -239 l18 -31 -64 0 -63 0 -48 55 c-94 110 -225 185 -378
219 -27 6 -28 5 -28 -39 0 -35 -6 -52 -24 -70 -69 -69 -176 -25 -176 71 l0 44
-32 -7 c-125 -23 -247 -92 -350 -195 l-76 -78 -61 0 -60 0 22 38 c36 60 154
179 230 229 76 51 181 95 270 113 51 10 57 14 57 36 0 29 -6 29 -105 4 -206
-53 -408 -203 -506 -377 l-24 -43 -63 0 -62 0 21 43 c59 114 167 244 272 323
93 70 249 142 367 167 l100 22 0 95 c0 75 4 99 18 116 36 45 82 55 132 29z
m-6 -831 c21 -21 21 -86 -3 -270 -11 -82 -22 -171 -24 -197 l-5 -49 92 7 c50
4 108 10 129 15 20 4 37 6 37 4 0 -19 -32 -74 -47 -83 -20 -10 -323 -11 -323
0 0 3 9 14 20 24 12 11 18 25 15 36 -4 10 3 92 15 181 12 90 22 205 23 255 l2
93 27 0 c15 0 34 -7 42 -16z m-757 -777 c23 -50 135 -177 199 -226 88 -66 208
-125 309 -153 122 -32 309 -30 428 6 206 62 357 172 476 349 l32 47 60 0 59 0
-24 -48 c-56 -111 -191 -257 -311 -337 -76 -50 -190 -99 -289 -125 -401 -102
-840 87 -1046 453 l-32 57 64 0 c58 0 66 -2 75 -23z m244 -50 c132 -129 283
-191 469 -191 197 0 360 71 494 214 l47 50 65 0 65 0 -22 -32 c-141 -201 -349
-321 -595 -344 -135 -12 -309 28 -442 102 -71 40 -198 156 -250 228 l-33 46
64 0 64 0 74 -73z"/>
</g>
</svg>
